<?xml version="1.0" encoding="UTF-8"?>
<svg id="principal_tex_b" data-name="principal tex b" xmlns="http://www.w3.org/2000/svg" width="1920" height="1080" xmlns:xlink="http://www.w3.org/1999/xlink" viewBox="0 0 1920 1080">
  <defs>
    <linearGradient id="Gradiente_sem_nome_31" data-name="Gradiente sem nome 31" x1="230.61" y1="404.23" x2="1674.91" y2="404.23" gradientUnits="userSpaceOnUse">
      <stop offset="0" stop-color="#b1191a"/>
      <stop offset="1" stop-color="#8e1917"/>
    </linearGradient>
    <linearGradient id="Gradiente_sem_nome_31-2" data-name="Gradiente sem nome 31" x1="816.13" y1="125.18" x2="873.13" y2="125.18" xlink:href="#Gradiente_sem_nome_31"/>
    <linearGradient id="Gradiente_sem_nome_31-3" data-name="Gradiente sem nome 31" x1="696.94" y1="177.29" x2="1208.85" y2="177.29" xlink:href="#Gradiente_sem_nome_31"/>
    <linearGradient id="Gradiente_sem_nome_31-4" data-name="Gradiente sem nome 31" x1="914.02" y1="422.38" x2="977.69" y2="422.38" xlink:href="#Gradiente_sem_nome_31"/>
    <linearGradient id="Gradiente_sem_nome_38" data-name="Gradiente sem nome 38" x1="278.37" y1="891.83" x2="1627.15" y2="891.83" gradientUnits="userSpaceOnUse">
      <stop offset="0" stop-color="#b1191a"/>
      <stop offset=".33" stop-color="#ac1919"/>
      <stop offset=".68" stop-color="#a01918"/>
      <stop offset="1" stop-color="#8e1917"/>
    </linearGradient>
  </defs>
  <g>
    <path d="M599.41,524.57c.48-1.09.28-2.39-.51-3.37-2.94-2.9-6.31-5.94-10.12-9-3.18-2.55-6.27-4.79-9.21-6.75.61,2.59,1.96,9.97-2.04,16.98-1.07,1.86-2.3,3.34-3.48,4.5,7.81-.21,15.61-.41,23.42-.62.21-.07,1.4-.49,1.94-1.74ZM482.31,547.18c3.2,2.48,5.45,5.31,7.02,7.84,7.82,2.34,15.64,4.68,23.46,7.02l14.02,21.95c3.89-.01,7.94-.12,12.16-.34,4.52-.23,8.84-.59,12.96-1.02.51-.78,1.27-2.01,2.1-3.56,1.81-3.37,2.74-6.11,4.2-10.36.51-1.49.92-2.88,1.74-5.65.18-.6.45-1.52.7-2.76.12-.61.2-1.11.26-1.47.47-1.86-.38-3.53-1.44-3.88-1.2-.4-3.22.75-3.61,3.07-.31,2.35-.8,4.97-1.57,7.77-1.29,4.71-3,8.66-4.63,11.79-3.2.64-6.89,1.18-10.98,1.44-3.84.24-7.34.19-10.43,0-1.81-2.37-3.68-5-5.53-7.91-1.95-3.07-3.62-6.03-5.04-8.8,7.1-5.51,14.56-11.07,22.36-16.63,5.66-4.04,11.26-7.9,16.77-11.6-4.15-.22-8.31-.45-12.47-.68-3.84-1.47-7.68-2.95-11.53-4.43-2.9.25-5.81.5-8.72.74l20.04,7.1-29.79,22.02-22.16-7.22c-.99-1.64-2.74-4.07-5.59-6.28-2.32-1.79-4.58-2.81-6.21-3.4-7.32-1.55-14.63-3.1-21.95-4.64l-7.91.95,30.07,7.71c.56.37,1.13.78,1.7,1.23ZM455.31,589.52c0,8.13,6.6,14.72,14.73,14.72s14.73-6.59,14.73-14.72c0-2.14-.45-4.17-1.27-6l-9.08,10.74c-2.04,2.42-5.65,2.72-8.07.68l-1.37-1.16c-2.42-2.04-2.72-5.65-.68-8.07l8.93-10.57c-1.03-.23-2.09-.35-3.19-.35-8.13,0-14.73,6.59-14.73,14.73ZM1065.88,535.38l-8.27-35.24c2.53-.08,5.06-.16,7.58-.25.39-.03,3.42-.33,5.25-3.04,1.98-2.94.8-6.12.69-6.41-1.66-7.31-3.31-14.61-4.97-21.92-.15-1.39-.7-4.76-3.38-7.64-1.12-1.2-2.3-1.99-3.24-2.5h-18.92l-3.22-4h-19.79c-4.08,3.15-8.16,6.29-12.25,9.44-.85.79-2.29,2.32-3.26,4.69-.92,2.2-1.02,4.16-1,5.3,0,4.78.36,10.11,1.41,15.84.28,1.52.59,2.99.93,4.41.45.91,1.98,3.66,5.36,5.34,3.19,1.57,6.13,1.25,7.16,1.09l-9.5,34.89h12.67v61.16c.69,3.53,3.77,6.11,7.32,6.19,3.68.08,6.96-2.54,7.68-6.19v-61.16h5v61.11c.65,3.77,3.87,6.57,7.62,6.71,3.96.15,7.53-2.71,8.24-6.71l.14-61.11h10.75ZM551.26,512.13c-.51-.18-1.94-.76-3-2.29-.97-1.39-1.08-2.78-1.09-3.34.06-.53.31-2.05,1.57-3.34.78-.8,1.64-1.18,2.15-1.36,1.19-.44,2.93-.94,5.08-1.06,1.9-.1,3.51.12,4.68.38,1.37.81,2.86,1.78,4.39,2.96,2.17,1.66,3.94,3.35,5.36,4.88.06-1.57.33-3.87,1.33-6.44.83-2.16,1.9-3.81,2.77-4.95.54-.44,2.26-1.73,4.84-1.84,2.5-.1,4.28.97,4.87,1.37,4.83,2.96,10.89,7.38,16.86,13.8,4.28,4.61,7.47,9.13,9.83,13.02.23.28,2.93,3.8,1.56,8.05-1.04,3.23-3.72,4.67-4.29,4.96-3.85.19-7.72.38-11.57.56-1.63.28-4.68,1.02-7.77,3.28-2.89,2.08-4.49,4.51-5.28,5.93-.07.47-.14,1.47.31,2.61.54,1.38,1.54,2.12,1.93,2.38,4.87-3.89,11.05-6.22,17.77-6.22,15.72,0,28.45,12.73,28.45,28.43,0,11.74-7.12,21.81-17.28,26.15,5.53-.55,11.08-1.08,16.67-1.6,42.92-4,84.53-6.95,124.73-9v-310.91l196.94-140.93,196.06,140.93v310.91c21.7.89,43.98,2.1,66.76,3.69-.09-.01-.17-.02-.26-.03-.37-2.57-.64-5.52-.66-8.78-.02-4.41.43-8.3,1.01-11.52-.5-.34-1.76-1.28-2.37-3-.33-.9-.37-1.71-.34-2.25.06-5.28.3-10.93.81-16.91.5-5.85,1.2-11.35,2.02-16.46.46-1.26,1.22-2.9,2.46-4.62,1.28-1.8,2.65-3.08,3.72-3.94,1.03-.82,2.17-1.67,3.44-2.51,1.91-1.26,3.74-2.27,5.42-3.08-4.05-.82-8.09-1.64-12.14-2.46-.49-.22-1.89-.95-2.75-2.59-.63-1.19-.68-2.31-.67-2.86.19-.91.69-2.76,2.2-4.55,1.4-1.65,2.97-2.45,3.81-2.81,2-.22,4.32-.35,6.89-.26,2.41.08,4.6.34,6.49.66.8.6,1.91,1.57,2.93,3.02,1.04,1.49,1.56,2.9,1.84,3.87,3.47-4.71,7.15-9.5,11.06-14.35,2.34-2.92,4.68-5.74,7-8.49,1.32-.91,3.25-2.03,5.74-2.86,2.8-.94,5.26-1.15,6.97-1.16,15.58-.07,33,.81,51.82,3.3,10.44,1.39,20.26,3.13,29.44,5.08,1.72.31,5.25,1.18,8.74,3.96,3.41,2.72,5.04,5.9,5.73,7.5,3.04,6.86,6.09,13.73,9.15,20.59.66-.97,1.62-2.17,3-3.34,1.02-.88,2.01-1.51,2.86-1.98,1.76-.36,4.81-.73,8.4.14,2.2.53,3.94,1.38,5.18,2.11.54.23,1.61.77,2.52,1.91,1.03,1.29,1.29,2.62,1.36,3.2.14.6.48,2.42-.41,4.44-.98,2.24-2.82,3.22-3.34,3.47-1.82.1-3.88.11-6.13-.06-2.71-.21-5.12-.62-7.17-1.1,1.98,1.52,4.31,3.59,6.62,6.35,1.78,2.13,3.13,4.19,4.16,6,.41.85.79,1.8,1.12,2.83,1.42,4.48,1.19,8.56.72,11.35-.28,3.63-.74,7.56-1.43,11.72-.81,4.88-1.83,9.34-2.93,13.37-.17.4-.58,1.26-1.5,1.98-.87.67-1.77.88-2.19.95-.46,5.55-.91,11.09-1.37,16.64-.31.77-.94,2.04-2.18,3.2-.75.7-1.5,1.16-2.09,1.45,16.84,2.34,33.35,4.82,49.52,7.41,40.34,5.03,84.12,12.24,130.59,22.5,41.12,9.09,79.26,19.43,114.21,30.28-218.62-21.92-460.34-36.07-721.84-36-261.75.06-503.67,14.35-722.46,36.41,48.61-14.88,102.74-28.93,161.98-40.5,24.97-4.88,49.25-9.01,72.75-12.48-13.45-2.25-23.69-13.94-23.69-28.02,0-15.71,12.74-28.44,28.45-28.44,4.54,0,8.84,1.06,12.64,2.96h0c.15-.07.68-.31.96-.91.24-.5.18-.96.15-1.13-1.13-2.06-3.22-5.22-6.8-8.02-2.35-1.84-4.63-2.98-6.4-3.69-2.92-1.19-6.31-2.36-10.13-3.32-5.47-1.38-10.43-1.98-14.59-2.2-.37-.01-2.69-.16-4.09-2.04-.56-.77-.78-1.55-.87-2.07.43-1.06,1.3-2.77,2.97-4.38,2.16-2.08,4.52-2.86,5.68-3.17,3.93-.77,8.95-1.4,14.79-1.22,4.88.14,9.13.8,12.59,1.58,2.19.2,4.57.34,7.11.36,2.64.02,5.11-.08,7.37-.26,6.3-2.93,12.96-5.84,19.96-8.69,7.52-3.05,14.8-5.77,21.8-8.18,2.06-.31,4.67-.51,7.67-.31,2.75.19,5.13.66,7.02,1.18,2.36.62,5.18,1.56,8.23,3.01,3.33,1.59,6.02,3.35,8.09,4.91.58-.35,2.02-1.33,2.93-3.23.95-2,.75-3.82.65-4.49-1.02-1.27-2.24-2.64-3.68-4.04-1.55-1.5-3.07-2.75-4.45-3.78-.84.65-1.66,1.29-2.48,1.94-.65.23-1.67.49-2.93.48-1.33,0-2.38-.33-3.04-.58ZM609.22,569.87c2.42,2.04,2.72,5.65.68,8.07l-1.16,1.37c-2.04,2.41-5.66,2.72-8.07.67l-11.6-9.8c-.25,1.09-.39,2.22-.39,3.38,0,8.14,6.59,14.73,14.72,14.73s14.73-6.59,14.73-14.73-6.59-14.73-14.73-14.73c-2.07,0-4.05.43-5.83,1.2l11.65,9.84ZM870.13,525.49s-22.68,12.14-33.86,18.21c-.36.26-1.88,1.41-2.25,3.48-.35,2,2.25,5.2,2.25,5.2h17.86v45.08c.47,2.86,2.95,4.93,5.7,4.82,2.61-.09,4.85-2.11,5.3-4.82v-22.08h23.87c-4.13,6.61-8.27,13.22-12.4,19.83-.67,2.05-.17,4.25,1.27,5.62,1.84,1.76,4.95,1.89,7.21.11l10.71-18.56h2.34v14.81s2.53,4.72,5.34,4.8c2.95.1,5.64-1.89,6.44-4.8-.1-12.75-.2-25.5-.31-38.25.75-.34,3.38-1.62,4.91-4.71,1.62-3.26.92-6.3.72-7.05-.35.64-1.61,2.75-4.2,3.68-1.23.44-2.34.46-3.06.52h-37.84v-25.89ZM1355.31,545.13c-2.46.61-4.27,2.68-4.5,5.11-.22,2.18.86,4.33,2.76,5.53,2.41,1.37,7.72,3.95,14.76,3.68,4-.15,7.22-1.17,9.38-2.07,2.34-1.25,3.7-3.76,3.44-6.32-.23-2.26-1.7-4.23-3.82-5.18-1.59-.66-3.44-1.27-5.52-1.7-6.97-1.46-12.95-.17-16.5.95ZM1271.26,561.54c-.24.08-3.76,1.16-4.73,4.45-.86,2.98.72,6.47,3.97,8.08,7.51,2.28,16.64,4.42,27.13,5.63,13.2,1.52,24.77,1.11,33.95.13,2.7-.62,4.73-2.9,5.01-5.65.28-2.74-1.2-5.38-3.7-6.55-7.81-2.77-18.36-5.66-31.07-6.85-12.13-1.14-22.58-.39-30.56.76ZM1368.67,528.83c-3.14-7.54-6.27-15.09-9.41-22.63-.81-1.22-2.16-2.89-4.23-4.37-3.6-2.56-7.28-3.03-9-3.13-10.37-2.09-21.72-3.9-33.95-5.18-16.68-1.75-32.05-2.2-45.78-1.91-.83.03-2.42.21-4.13,1.16-1.57.87-2.52,2-3,2.66l-15,21c18.57,4.15,39.73,7.81,63.14,10.09,22.4,2.17,43,2.71,61.36,2.31ZM1354.13,606.51v-11.27c-16.38,1.1-35.99,1.19-57.96-1.22-19.13-2.11-36.03-5.67-50.32-9.55-.14,1.88-.48,4.17-1.22,6.68-.42,1.4-.89,2.65-1.38,3.76,18.06,1.46,36.43,3.16,55.1,5.11,18.96,1.98,37.56,4.14,55.78,6.49ZM1254.26,546.15c2.26-1.4,3.52-3.74,3.17-5.93-.21-1.34-.96-2.28-1.43-2.76-1.64-1.63-4.71-4.26-9.31-5.93-6.09-2.21-11.41-1.48-13.78-1-.3.16-4.06,2.32-4.42,6.73-.31,3.76,2.09,6.28,2.45,6.64,2.6,1.37,7.41,3.44,13.71,3.58,3.98.09,7.29-.62,9.61-1.33ZM1135.13,589.38v-303.82l-182.41-130.23-181.59,130.23v303.82h7v-298.91l174.68-125.32,173.32,125.32v298.91h9ZM1052.13,434.38c0-8.28-6.72-15-15-15s-15,6.72-15,15,6.71,15,15,15,15-6.72,15-15ZM1013.13,448.88c0-5.25-4.26-9.5-9.5-9.5s-9.5,4.25-9.5,9.5,4.25,9.5,9.5,9.5,9.5-4.25,9.5-9.5ZM998.35,408.04c2.58-4.52.87-10.18-3.11-12.3-4.95-2.64-12.18.8-12.53,8.12-.72.41-.64.37-1.36.78l-20.55-11.26h-29.67l-20.1,11.9-3.7-6.36c-2.34-4.4-7.75-5.86-11.63-3.51-4.06,2.45-5.32,8.41-2.27,12.63,4.3,10.33,8.6,20.65,12.9,30.97l19.8,17.64-.6,139.94c1.12,4.01,4.72,6.8,8.8,6.8s7.67-2.79,8.8-6.8v-78.21h7v78.21c.12.68.63,3.02,2.74,4.85,2.39,2.07,5.13,1.98,5.73,1.95.58.04,3.38.17,5.81-1.95,2.1-1.83,2.6-4.17,2.72-4.85v-141.65l16.96-14.08,14.26-32.82ZM958.13,375.88c0-6.9-5.6-12.5-12.5-12.5s-12.5,5.6-12.5,12.5,5.59,12.5,12.5,12.5,12.5-5.6,12.5-12.5ZM597.76,601.82c-13-2.62-22.79-14.1-22.79-27.87,0-4.23.92-8.25,2.59-11.86l.18-.39c-1.23-.25-2.74-.46-4.47-.43-.95.01-1.82.09-2.59.2-1.64,6.44-3.28,12.87-4.91,19.31-.5,1.5-2.32,6.35-7.44,9.67-4.18,2.72-8.32,2.94-10.02,2.93h-24.63c-2.58-2.04-5.46-4.68-8.3-8.04-5.29-6.28-8.28-12.56-10.01-17.17-2.25.51-4.82,1.26-7.58,2.37-1.85.75-3.51,1.55-4.98,2.34,3.56,4.75,5.66,10.64,5.66,17.03,0,11.23-6.52,20.94-15.97,25.56,16.25-2.23,32.11-4.14,47.54-5.79,22.1-2.82,44.68-5.46,67.72-7.86Z" fill="url(#Gradiente_sem_nome_31)"/>
    <polygon points="816.13 80.38 873.13 80.38 873.13 128.69 858.13 139.38 858.13 95.38 831.13 95.38 831.13 159.26 816.13 169.99 816.13 80.38" fill="url(#Gradiente_sem_nome_31-2)"/>
    <polygon points="696.94 255.29 816.13 169.99 816.13 170.06 831.13 159.43 831.13 159.26 873.37 129.03 952.66 72.29 1208.85 255.29 1179.4 282.29 952.66 118.65 726.67 282.29 696.94 255.29" fill="url(#Gradiente_sem_nome_31-3)"/>
    <path d="M933.46,440.38c-2.91-1.72-6.84-4.48-10.59-8.74-5.22-5.93-7.67-12.01-8.85-15.74l18.42-11.52h25.98l19.27,11.52c-1.3,3.64-3.8,9.23-8.64,14.81-4.15,4.8-8.5,7.84-11.62,9.67h-23.97ZM945.63,408.38c-8.01,0-14.5,6.49-14.5,14.5s6.49,14.5,14.5,14.5,14.5-6.49,14.5-14.5-6.5-14.5-14.5-14.5Z" fill="url(#Gradiente_sem_nome_31-4)"/>
  </g>
  <rect x="278.37" y="886.72" width="1348.77" height="10.23" rx="5.01" ry="5.01" fill="url(#Gradiente_sem_nome_38)"/>
  <g>
    <path d="M274.9,767.61h37v64.64c-17.56,12.18-45.43,21.08-68.38,21.08-50.12,0-87.82-36.07-87.82-83.84s38.64-83.37,90.63-83.37c24.59,0,50.58,9.37,67.45,24.36l-24.36,29.98c-11.71-11.01-28.34-18.03-43.33-18.03-26.46,0-46.37,20.38-46.37,47.07s20.14,47.31,46.84,47.31c8.2,0,18.5-2.81,28.34-7.73v-41.45Z" fill="#fff"/>
    <path d="M455.69,724.75v126.7h-41.69v-20.61c-8.67,14.75-22.48,22.25-40.51,22.48-27.4,0-45.2-18.97-45.2-48.48v-80.09h41.69v68.15c0,14.29,7.96,22.95,20.37,22.95,14.75-.23,23.65-11.94,23.65-28.57v-62.53h41.69Z" fill="#fff"/>
    <path d="M603.7,799.22h-88.06c3.98,14.29,14.52,22.25,28.81,22.25,10.77,0,21.31-4.45,29.74-12.88l21.78,21.78c-12.88,14.52-31.85,22.48-55.27,22.48-41.45,0-66.98-25.53-66.98-64.17s26.46-65.34,66.04-65.34c44.26,0,66.74,29.74,63.93,75.88ZM563.42,776.98c0-14.52-9.37-24.36-23.42-24.36s-22.48,9.84-25.29,24.36h48.71Z" fill="#fff"/>
    <path d="M704.17,723.11v38.17c-23.18-2.34-38.64,7.96-40.75,25.53v64.64h-41.69v-126.7h41.69v21.08c8.67-14.52,22.95-22.72,40.75-22.72Z" fill="#fff"/>
    <path d="M791.99,723.11v38.17c-23.18-2.34-38.64,7.96-40.75,25.53v64.64h-41.69v-126.7h41.69v21.08c8.67-14.52,22.95-22.72,40.75-22.72Z" fill="#fff"/>
    <path d="M911.19,769.01v82.44h-40.98v-14.29c-8.2,10.54-21.08,16.16-38.17,16.16-27.17,0-43.33-16.39-43.33-39.58s17.1-37.94,48.48-38.41h33.02v-1.41c0-11.94-8.2-18.97-24.12-18.97-10.54,0-24.36,3.51-37.94,10.07l-11.47-28.1c19.91-8.9,38.17-13.82,59.02-13.82,34.89,0,55.27,16.86,55.5,45.9ZM870.21,808.59v-11.01h-24.82c-11.71,0-17.56,4.22-17.56,13.12s6.32,14.29,17.1,14.29c12.41,0,22.72-6.79,25.29-16.39Z" fill="#fff"/>
    <path d="M1125.01,858.71c-8.2-7.96-15.92-15.22-22.95-22.25-13.58,10.77-29.51,16.86-46.37,16.86-32.32,0-56.21-19.91-56.21-47.77,0-22.01,14.99-34.43,32.32-43.79-9.84-13.82-13.58-24.59-13.58-36.3,0-24.36,18.27-39.81,47.07-39.81s47.31,15.22,47.31,37c0,22.95-18.97,34.89-38.17,44.96,6.56,7.49,14.75,15.92,24.82,25.76,4.45-7.73,7.96-16.39,10.77-26l26.46,19.2c-3.98,10.54-8.9,20.14-14.75,28.57,7.49,7.03,15.46,14.75,24.36,22.95l-21.08,20.61ZM1080.51,815.38c-13.35-13.12-23.89-24.12-32.55-33.72-8.67,5.62-14.52,11.94-14.52,20.61,0,12.88,10.3,21.55,23.89,21.55,8.2,0,15.93-3.04,23.19-8.43ZM1058.73,747.7c12.18-6.56,21.31-13.58,21.31-24.59,0-8.2-5.62-13.82-14.29-13.82-9.37,0-15.22,6.79-15.22,15.92,0,6.79,2.58,13.82,8.2,22.48Z" fill="#fff"/>
    <path d="M1282.38,720.3c-10.3,0-17.1,3.75-17.1,11.24,0,27.17,86.42,11.71,86.42,70.73,0,33.49-29.51,50.59-66.04,50.59-27.4,0-55.97-10.07-75.64-26.23l16.63-33.49c16.86,14.52,42.39,24.82,59.48,24.82,12.65,0,20.61-4.68,20.61-13.35,0-27.87-86.42-11.01-86.42-69.09,0-30.68,26-50.12,65.57-50.12,24.12,0,48.48,7.49,65.57,18.5l-16.16,33.96c-17.33-9.84-39.34-17.56-52.93-17.56Z" fill="#fff"/>
    <path d="M1406.74,724.75v126.7h-41.45v-126.7h41.45ZM1405.1,689.15c0,11.01-7.96,18.97-18.97,18.97s-18.97-7.96-18.97-18.97,7.96-19.2,18.97-19.2,18.97,7.96,18.97,19.2Z" fill="#fff"/>
    <path d="M1477.93,677.68v173.77h-41.69v-173.77h41.69Z" fill="#fff"/>
    <path d="M1528.52,724.75l26.46,88.06,26.7-88.06h41.69l-47.54,126.7h-42.86l-47.31-126.7h42.86Z" fill="#fff"/>
    <path d="M1743.04,769.01v82.44h-40.98v-14.29c-8.2,10.54-21.08,16.16-38.17,16.16-27.17,0-43.33-16.39-43.33-39.58s17.1-37.94,48.48-38.41h33.02v-1.41c0-11.94-8.2-18.97-24.12-18.97-10.54,0-24.36,3.51-37.94,10.07l-11.48-28.1c19.91-8.9,38.17-13.82,59.02-13.82,34.89,0,55.27,16.86,55.5,45.9ZM1702.05,808.59v-11.01h-24.82c-11.71,0-17.56,4.22-17.56,13.12s6.32,14.29,17.1,14.29c12.41,0,22.72-6.79,25.29-16.39Z" fill="#fff"/>
  </g>
  <g>
    <path d="M135.83,996.32c4.33,0,8.06-.73,11.19-2.18,3.12-1.46,6.39-3.78,9.8-6.98l8.1,8.31c-7.89,8.74-17.46,13.11-28.72,13.11s-20.6-3.62-28.02-10.87c-7.42-7.25-11.13-16.41-11.13-27.49s3.78-20.31,11.35-27.7c7.56-7.39,17.12-11.08,28.66-11.08s21.19,4.26,28.93,12.79l-7.99,8.74c-3.55-3.41-6.91-5.79-10.07-7.14-3.16-1.35-6.87-2.02-11.13-2.02-7.53,0-13.85,2.43-18.97,7.3-5.11,4.87-7.67,11.08-7.67,18.65s2.54,13.89,7.62,18.97c5.08,5.08,11.1,7.62,18.06,7.62Z" fill="#fff"/>
    <path d="M227.58,1000.1c-5.68,5.65-12.79,8.47-21.31,8.47s-15.63-2.82-21.31-8.47c-5.68-5.65-8.52-12.55-8.52-20.72s2.84-15.08,8.52-20.72c5.68-5.65,12.79-8.47,21.31-8.47s15.63,2.82,21.31,8.47c5.68,5.65,8.52,12.56,8.52,20.72s-2.84,15.08-8.52,20.72ZM193.43,992.75c3.37,3.45,7.65,5.17,12.84,5.17s9.46-1.72,12.84-5.17c3.37-3.44,5.06-7.9,5.06-13.37s-1.69-9.93-5.06-13.37c-3.38-3.45-7.66-5.17-12.84-5.17s-9.47,1.72-12.84,5.17c-3.37,3.45-5.06,7.9-5.06,13.37s1.69,9.93,5.06,13.37Z" fill="#fff"/>
    <path d="M282.56,962.22c-5.9,0-10.34,1.92-13.32,5.75s-4.48,8.99-4.48,15.45v24.29h-11.93v-56.68h11.93v11.4c1.92-3.55,4.53-6.46,7.83-8.74,3.3-2.27,6.8-3.44,10.5-3.52l.11,12.04h-.64Z" fill="#fff"/>
    <path d="M328.05,962.22c-5.9,0-10.34,1.92-13.32,5.75s-4.48,8.99-4.48,15.45v24.29h-11.93v-56.68h11.93v11.4c1.92-3.55,4.53-6.46,7.83-8.74,3.3-2.27,6.8-3.44,10.5-3.52l.11,12.04h-.64Z" fill="#fff"/>
    <path d="M396.56,984.59h-44.43c.28,4.12,2.17,7.44,5.65,9.96,3.48,2.52,7.46,3.78,11.93,3.78,7.1,0,12.5-2.24,16.2-6.71l6.82,7.46c-6.11,6.32-14.06,9.48-23.87,9.48-7.96,0-14.72-2.65-20.3-7.94-5.58-5.29-8.36-12.39-8.36-21.31s2.84-16,8.52-21.26c5.68-5.26,12.38-7.88,20.08-7.88s14.26,2.33,19.66,6.98c5.4,4.65,8.1,11.06,8.1,19.23v8.2ZM352.13,975.22h32.5c0-4.76-1.49-8.42-4.48-10.97-2.98-2.56-6.66-3.83-11.03-3.83s-8.29,1.33-11.77,4c-3.48,2.66-5.22,6.27-5.22,10.81Z" fill="#fff"/>
    <path d="M427.14,960.62v28.77c0,2.7.71,4.85,2.13,6.45,1.42,1.6,3.41,2.4,5.97,2.4s5.01-1.24,7.35-3.73l4.9,8.42c-4.19,3.77-8.83,5.65-13.91,5.65s-9.41-1.76-13-5.27c-3.59-3.52-5.38-8.26-5.38-14.22v-28.45h-7.14v-9.59h7.14v-17.79h11.93v17.79h14.92v9.59h-14.92Z" fill="#fff"/>
    <path d="M507.16,1000.1c-5.68,5.65-12.79,8.47-21.31,8.47s-15.63-2.82-21.31-8.47c-5.68-5.65-8.52-12.55-8.52-20.72s2.84-15.08,8.52-20.72c5.68-5.65,12.79-8.47,21.31-8.47s15.63,2.82,21.31,8.47c5.68,5.65,8.52,12.56,8.52,20.72s-2.84,15.08-8.52,20.72ZM473.01,992.75c3.37,3.45,7.65,5.17,12.84,5.17s9.46-1.72,12.84-5.17c3.37-3.44,5.06-7.9,5.06-13.37s-1.69-9.93-5.06-13.37c-3.38-3.45-7.66-5.17-12.84-5.17s-9.47,1.72-12.84,5.17c-3.37,3.45-5.06,7.9-5.06,13.37s1.69,9.93,5.06,13.37Z" fill="#fff"/>
    <path d="M562.14,962.22c-5.9,0-10.34,1.92-13.32,5.75s-4.48,8.99-4.48,15.45v24.29h-11.93v-56.68h11.93v11.4c1.92-3.55,4.53-6.46,7.83-8.74,3.3-2.27,6.8-3.44,10.5-3.52l.11,12.04h-.64Z" fill="#fff"/>
    <path d="M623.31,1007.72h-10.87v-7.57c-4.69,5.61-10.98,8.42-18.86,8.42-5.9,0-10.78-1.67-14.65-5.01-3.87-3.34-5.81-7.79-5.81-13.37s2.06-9.75,6.18-12.52c4.12-2.77,9.7-4.16,16.73-4.16h15.45v-2.13c0-7.53-4.19-11.29-12.57-11.29-5.26,0-10.73,1.92-16.41,5.75l-5.33-7.46c6.89-5.47,14.7-8.21,23.44-8.21,6.68,0,12.13,1.69,16.36,5.06,4.23,3.37,6.34,8.68,6.34,15.93v36.55ZM611.37,986.62v-4.79h-13.43c-8.6,0-12.89,2.7-12.89,8.1,0,2.77,1.07,4.88,3.2,6.34,2.13,1.46,5.1,2.18,8.9,2.18s7.12-1.07,9.96-3.2c2.84-2.13,4.26-5.01,4.26-8.63Z" fill="#fff"/>
    <path d="M679.88,1000.47c-5.33-5.4-7.99-12.5-7.99-21.31s2.73-15.84,8.2-21.1c5.47-5.26,11.99-7.88,19.55-7.88s13.66,3.2,18.27,9.59v-31.11h11.93v79.06h-11.93v-8.52c-4.41,6.25-10.83,9.38-19.29,9.38-7.18,0-13.43-2.7-18.75-8.1ZM683.82,979.64c0,5.43,1.74,9.86,5.22,13.27,3.48,3.41,7.57,5.11,12.25,5.11s8.67-1.72,11.93-5.17c3.27-3.45,4.9-7.87,4.9-13.27s-1.63-9.91-4.9-13.53c-3.27-3.62-7.28-5.43-12.04-5.43s-8.84,1.81-12.25,5.43c-3.41,3.62-5.11,8.15-5.11,13.58Z" fill="#fff"/>
    <path d="M803.06,984.59h-44.43c.28,4.12,2.17,7.44,5.65,9.96,3.48,2.52,7.46,3.78,11.93,3.78,7.1,0,12.5-2.24,16.2-6.71l6.82,7.46c-6.11,6.32-14.06,9.48-23.87,9.48-7.96,0-14.72-2.65-20.3-7.94-5.58-5.29-8.36-12.39-8.36-21.31s2.84-16,8.52-21.26c5.68-5.26,12.38-7.88,20.08-7.88s14.26,2.33,19.66,6.98c5.4,4.65,8.1,11.06,8.1,19.23v8.2ZM758.62,975.22h32.5c0-4.76-1.49-8.42-4.48-10.97-2.98-2.56-6.66-3.83-11.03-3.83s-8.29,1.33-11.77,4c-3.48,2.66-5.22,6.27-5.22,10.81Z" fill="#fff"/>
    <path d="M875.99,943.04c-3.66,0-6.66.75-9,2.24-2.34,1.49-3.52,3.75-3.52,6.77s1.17,5.33,3.52,6.93c2.34,1.6,7.33,3.32,14.97,5.17,7.63,1.85,13.39,4.44,17.26,7.78,3.87,3.34,5.81,8.26,5.81,14.76s-2.45,11.77-7.35,15.82-11.33,6.07-19.29,6.07c-11.65,0-21.99-4.01-31.01-12.04l7.88-9.48c7.53,6.54,15.34,9.8,23.44,9.8,4.05,0,7.26-.87,9.64-2.61,2.38-1.74,3.57-4.05,3.57-6.93s-1.12-5.11-3.36-6.71c-2.24-1.6-6.09-3.05-11.56-4.37-5.47-1.31-9.63-2.52-12.47-3.62-2.84-1.1-5.36-2.54-7.57-4.32-4.41-3.34-6.61-8.45-6.61-15.34s2.5-12.2,7.51-15.93c5.01-3.73,11.2-5.59,18.59-5.59,4.76,0,9.48.78,14.17,2.34,4.69,1.56,8.74,3.77,12.15,6.61l-6.71,9.48c-2.2-1.99-5.19-3.62-8.95-4.9-3.77-1.28-7.48-1.92-11.13-1.92Z" fill="#fff"/>
    <path d="M974.81,984.59h-44.43c.28,4.12,2.17,7.44,5.65,9.96,3.48,2.52,7.46,3.78,11.93,3.78,7.1,0,12.5-2.24,16.2-6.71l6.82,7.46c-6.11,6.32-14.06,9.48-23.87,9.48-7.96,0-14.72-2.65-20.3-7.94-5.58-5.29-8.36-12.39-8.36-21.31s2.84-16,8.52-21.26c5.68-5.26,12.38-7.88,20.08-7.88s14.26,2.33,19.66,6.98c5.4,4.65,8.1,11.06,8.1,19.23v8.2ZM930.38,975.22h32.5c0-4.76-1.49-8.42-4.48-10.97-2.98-2.56-6.66-3.83-11.03-3.83s-8.29,1.33-11.77,4c-3.48,2.66-5.22,6.27-5.22,10.81Z" fill="#fff"/>
    <path d="M1043.54,951.03v49.44c0,10.02-2.72,17.53-8.15,22.54-5.43,5.01-12.41,7.51-20.94,7.51s-16.23-2.66-23.12-7.99l5.65-9.06c5.54,4.19,11.13,6.29,16.78,6.29s10.12-1.46,13.42-4.37c3.3-2.91,4.96-7.57,4.96-13.96v-7.25c-1.78,3.34-4.32,6-7.62,7.99-3.3,1.99-7.02,2.98-11.13,2.98-7.53,0-13.71-2.63-18.54-7.88-4.83-5.26-7.25-11.79-7.25-19.61s2.41-14.35,7.25-19.61c4.83-5.26,10.99-7.88,18.49-7.88s13.59,3.09,18.27,9.27v-8.42h11.93ZM999.32,977.19c0,4.65,1.44,8.67,4.32,12.04,2.88,3.38,6.75,5.06,11.61,5.06s8.81-1.63,11.83-4.9c3.02-3.27,4.53-7.33,4.53-12.2s-1.53-8.99-4.58-12.36c-3.06-3.37-7-5.06-11.83-5.06s-8.68,1.74-11.56,5.22c-2.88,3.48-4.32,7.55-4.32,12.2Z" fill="#fff"/>
    <path d="M1103.63,981.72v-30.69h11.93v56.68h-11.93v-10.33c-1.92,3.48-4.56,6.22-7.94,8.2-3.38,1.99-7.02,2.98-10.92,2.98-6.39,0-11.56-1.95-15.5-5.86-3.94-3.91-5.91-9.55-5.91-16.94v-34.74h11.93v31.11c0,10.44,4.33,15.66,13,15.66,4.12,0,7.71-1.37,10.76-4.1,3.05-2.73,4.58-6.73,4.58-11.99Z" fill="#fff"/>
    <path d="M1165.75,962.22c-5.9,0-10.33,1.92-13.32,5.75s-4.48,8.99-4.48,15.45v24.29h-11.93v-56.68h11.93v11.4c1.92-3.55,4.53-6.46,7.83-8.74,3.3-2.27,6.8-3.44,10.5-3.52l.11,12.04h-.64Z" fill="#fff"/>
    <path d="M1227.87,1000.1c-5.68,5.65-12.79,8.47-21.31,8.47s-15.63-2.82-21.31-8.47c-5.68-5.65-8.52-12.55-8.52-20.72s2.84-15.08,8.52-20.72c5.68-5.65,12.79-8.47,21.31-8.47s15.63,2.82,21.31,8.47c5.68,5.65,8.52,12.56,8.52,20.72s-2.84,15.08-8.52,20.72ZM1193.72,992.75c3.37,3.45,7.65,5.17,12.84,5.17s9.46-1.72,12.84-5.17c3.37-3.44,5.06-7.9,5.06-13.37s-1.69-9.93-5.06-13.37c-3.37-3.45-7.66-5.17-12.84-5.17s-9.47,1.72-12.84,5.17c-3.38,3.45-5.06,7.9-5.06,13.37s1.69,9.93,5.06,13.37Z" fill="#fff"/>
    <path d="M1293.51,990.77c0,5.4-1.95,9.71-5.86,12.95-3.91,3.23-8.92,4.85-15.02,4.85-4.12,0-8.4-.75-12.84-2.24-4.44-1.49-8.36-3.59-11.77-6.29l5.75-9.27c6.61,4.97,13,7.46,19.18,7.46,2.7,0,4.83-.62,6.39-1.86,1.56-1.24,2.34-2.82,2.34-4.74,0-2.84-3.77-5.4-11.29-7.67-.57-.21-1-.35-1.28-.43-11.79-3.2-17.69-8.52-17.69-15.98,0-5.26,2.04-9.46,6.13-12.63,4.08-3.16,9.39-4.74,15.93-4.74s12.71,1.92,18.54,5.75l-4.48,8.84c-4.62-3.05-9.63-4.58-15.02-4.58-2.84,0-5.15.52-6.93,1.54-1.78,1.03-2.66,2.58-2.66,4.64,0,1.85.92,3.2,2.77,4.05,1.28.64,3.07,1.24,5.38,1.81,2.31.57,4.35,1.14,6.13,1.71,1.77.57,3.5,1.21,5.17,1.92,1.67.71,3.46,1.71,5.38,2.98,3.84,2.56,5.75,6.54,5.75,11.93Z" fill="#fff"/>
    <path d="M1344.33,1007.72v-74.48h12.57v62.54h33.99v11.93h-46.56Z" fill="#fff"/>
    <path d="M1417.53,960.62v28.77c0,2.7.71,4.85,2.13,6.45,1.42,1.6,3.41,2.4,5.97,2.4s5.01-1.24,7.35-3.73l4.9,8.42c-4.19,3.77-8.83,5.65-13.91,5.65s-9.41-1.76-13-5.27c-3.59-3.52-5.38-8.26-5.38-14.22v-28.45h-7.14v-9.59h7.14v-17.79h11.93v17.79h14.92v9.59h-14.92Z" fill="#fff"/>
    <path d="M1454.93,1000.47c-5.33-5.4-7.99-12.5-7.99-21.31s2.73-15.84,8.21-21.1c5.47-5.26,11.99-7.88,19.55-7.88s13.66,3.2,18.27,9.59v-31.11h11.93v79.06h-11.93v-8.52c-4.41,6.25-10.83,9.38-19.29,9.38-7.18,0-13.43-2.7-18.75-8.1ZM1458.88,979.64c0,5.43,1.74,9.86,5.22,13.27,3.48,3.41,7.56,5.11,12.25,5.11s8.67-1.72,11.93-5.17c3.27-3.45,4.9-7.87,4.9-13.27s-1.64-9.91-4.9-13.53c-3.27-3.62-7.28-5.43-12.04-5.43s-8.84,1.81-12.25,5.43c-3.41,3.62-5.12,8.15-5.12,13.58Z" fill="#fff"/>
    <path d="M1571.29,1007.72h-10.87v-7.57c-4.69,5.61-10.97,8.42-18.86,8.42-5.9,0-10.78-1.67-14.65-5.01-3.87-3.34-5.81-7.79-5.81-13.37s2.06-9.75,6.18-12.52c4.12-2.77,9.7-4.16,16.73-4.16h15.45v-2.13c0-7.53-4.19-11.29-12.57-11.29-5.26,0-10.73,1.92-16.41,5.75l-5.33-7.46c6.89-5.47,14.7-8.21,23.44-8.21,6.68,0,12.13,1.69,16.36,5.06,4.23,3.37,6.34,8.68,6.34,15.93v36.55ZM1559.35,986.62v-4.79h-13.43c-8.6,0-12.89,2.7-12.89,8.1,0,2.77,1.07,4.88,3.2,6.34,2.13,1.46,5.1,2.18,8.9,2.18s7.12-1.07,9.96-3.2c2.84-2.13,4.26-5.01,4.26-8.63Z" fill="#fff"/>
    <path d="M1590.15,981.5v-11.19h35.38v11.19h-35.38Z" fill="#fff"/>
    <path d="M1659.3,1007.72h-12.57v-74.48h19.61l22.48,46.78,22.48-46.78h19.5v74.48h-12.57v-58.18l-26,51.68h-7.03l-25.89-51.68v58.18Z" fill="#fff"/>
    <path d="M1806.98,933.24v11.83h-39.74v19.71h35.7v11.19h-35.7v19.92h41.02v11.83h-53.6v-74.48h52.32Z" fill="#fff"/>
  </g>
</svg>